<svg width="50" height="50" viewBox="0 0 50 50" fill="none" xmlns="http://www.w3.org/2000/svg">
<path d="M34.0702 13.1458C34.0697 12.8263 33.9583 12.5186 33.7577 12.2737L33.6659 12.1721L33.5653 12.0803C33.3554 11.9083 33.099 11.8019 32.829 11.7747L32.6923 11.7678H29.3339C29.2093 11.7678 29.0867 11.7396 28.9755 11.6858L28.869 11.6243C28.7665 11.554 28.6814 11.4616 28.62 11.3547L28.5663 11.2424C28.5063 11.0878 28.4943 10.9186 28.5321 10.7571C28.5605 10.6359 28.6157 10.523 28.6932 10.427L28.7782 10.3372L37.2372 2.59985L37.2411 2.59692C37.4288 2.4235 37.6674 2.31703 37.9198 2.29321L38.0292 2.28833C38.2847 2.28838 38.5318 2.37284 38.7333 2.52661L38.8173 2.59692L38.8212 2.59985L47.2792 10.3372C47.3709 10.4211 47.4423 10.5245 47.4882 10.6389L47.5253 10.7571C47.5536 10.8783 47.5541 11.0038 47.5272 11.1243L47.4911 11.2424C47.446 11.3585 47.3763 11.4629 47.286 11.5471L47.1893 11.6243C47.0525 11.718 46.8904 11.7677 46.7245 11.7678H43.1786C42.859 11.7683 42.5506 11.8794 42.3055 12.0803L42.205 12.1721C41.9789 12.3982 41.8391 12.6947 41.8075 13.01L41.8007 13.1458V35.7375C41.8001 35.9457 41.7173 36.145 41.5702 36.2922C41.4226 36.4397 41.2222 36.5235 41.0135 36.5237H34.8573C34.6486 36.5235 34.4482 36.4398 34.3007 36.2922C34.1717 36.1631 34.092 35.9938 34.0741 35.8137L34.0702 35.7366V13.1458Z" stroke="#0090CC" stroke-width="2"/>
<path d="M33.8516 45.5808H42.0195C42.0926 45.5808 42.1637 45.6023 42.2236 45.6423L42.2793 45.6882C42.3481 45.7571 42.3867 45.8506 42.3867 45.948C42.3867 46.0211 42.3652 46.0922 42.3252 46.1521L42.2793 46.2078C42.2105 46.2766 42.1169 46.3152 42.0195 46.3152H33.8516C33.7784 46.3152 33.7074 46.2937 33.6475 46.2537L33.5918 46.2078C33.5229 46.1389 33.4844 46.0454 33.4844 45.948C33.4844 45.8749 33.5059 45.8038 33.5459 45.7439L33.5918 45.6882C33.6434 45.6366 33.7088 45.6018 33.7793 45.5876L33.8516 45.5808Z" stroke="#0090CC" stroke-width="2"/>
<path d="M33.8516 41.2622H42.0195C42.0926 41.2622 42.1637 41.2837 42.2236 41.3237L42.2793 41.3696C42.3481 41.4385 42.3867 41.532 42.3867 41.6294C42.3867 41.7025 42.3652 41.7736 42.3252 41.8335L42.2793 41.8892C42.2105 41.958 42.1169 41.9966 42.0195 41.9966H33.8516C33.7784 41.9966 33.7074 41.9751 33.6475 41.9351L33.5918 41.8892C33.5229 41.8203 33.4844 41.7268 33.4844 41.6294C33.4844 41.5563 33.5059 41.4852 33.5459 41.4253L33.5918 41.3696C33.6607 41.3008 33.7542 41.2622 33.8516 41.2622Z" stroke="#0090CC" stroke-width="2"/>
<path d="M5.44739 30.0093H11.3263C11.8375 30.0093 12.2521 30.4239 12.2521 30.9351V45.5845C12.2521 46.0957 11.8375 46.5103 11.3263 46.5103H5.44739C4.93618 46.5103 4.52161 46.0957 4.52161 45.5845V30.9351C4.52161 30.4558 4.88588 30.0615 5.35266 30.0142L5.44739 30.0093Z" stroke="#0090CC" stroke-width="2"/>
<path d="M19.5081 21.3457H25.3879C25.6026 21.3458 25.8093 21.4208 25.9739 21.5557L26.0422 21.6172C26.2156 21.7907 26.3127 22.0261 26.3127 22.2715V45.585C26.3127 45.7998 26.2387 46.0072 26.1038 46.1719L26.0422 46.2393C25.8687 46.4127 25.6333 46.5106 25.3879 46.5107H19.5081C19.2932 46.5107 19.0859 46.4358 18.9211 46.3008L18.8538 46.2393C18.6802 46.0657 18.5823 45.8304 18.5823 45.585V22.2715L18.5872 22.1807C18.5931 22.1204 18.6048 22.0609 18.6223 22.0029L18.6526 21.917C18.6875 21.8327 18.7345 21.7539 18.7922 21.6836L18.8538 21.6162C18.9181 21.5519 18.9916 21.4978 19.0715 21.4551L19.1536 21.416C19.2379 21.3811 19.3268 21.3595 19.4172 21.3506L19.5081 21.3457Z" stroke="#0090CC" stroke-width="2"/>
</svg>
