<svg width="50" height="50" viewBox="0 0 50 50" fill="none" xmlns="http://www.w3.org/2000/svg">
<path d="M6.25 8.81274H10.9375C11.4307 8.81274 11.906 8.98427 12.2842 9.29419L12.4404 9.43481C12.8389 9.83332 13.0625 10.3742 13.0625 10.9377V45.3127C13.0625 45.8059 12.8909 46.2813 12.5811 46.6594L12.4404 46.8147C12.0419 47.2132 11.5011 47.4377 10.9375 47.4377H6.25C5.75688 47.4377 5.28145 47.2661 4.90332 46.9563L4.74707 46.8147C4.34884 46.4163 4.12506 45.8761 4.125 45.3127V10.9377C4.125 10.4446 4.29665 9.96919 4.60645 9.59106L4.74707 9.43481C5.14558 9.0363 5.68641 8.81274 6.25 8.81274ZM21.875 26.0002H26.5625C27.0557 26.0002 27.531 26.1718 27.9092 26.4817L28.0654 26.6223C28.4639 27.0208 28.6875 27.5617 28.6875 28.1252V45.3127C28.6875 45.8059 28.5159 46.2813 28.2061 46.6594L28.0654 46.8147C27.6669 47.2132 27.1261 47.4377 26.5625 47.4377H21.875C21.3819 47.4377 20.9065 47.2661 20.5283 46.9563L20.3721 46.8147C19.9738 46.4163 19.7501 45.8761 19.75 45.3127V28.1252C19.75 27.6321 19.9216 27.1567 20.2314 26.7786L20.3721 26.6223C20.7706 26.2238 21.3114 26.0002 21.875 26.0002ZM37.5 30.6877H42.1875C42.6807 30.6877 43.156 30.8593 43.5342 31.1692L43.6904 31.3098C44.0889 31.7083 44.3125 32.2492 44.3125 32.8127V45.3127C44.3124 45.8761 44.0887 46.4163 43.6904 46.8147C43.2919 47.2132 42.7511 47.4377 42.1875 47.4377H37.5C37.0069 47.4377 36.5314 47.2661 36.1533 46.9563L35.9971 46.8147C35.5988 46.4163 35.3751 45.8761 35.375 45.3127V32.8127C35.375 32.3196 35.5466 31.8442 35.8564 31.4661L35.9971 31.3098C36.3956 30.9113 36.9364 30.6877 37.5 30.6877ZM30.2969 2.65063C32.7782 2.5473 35.2188 3.27034 37.2393 4.69849L37.6377 4.99341L37.6562 5.00806L37.6748 5.02173C37.9267 5.19876 38.2897 5.49105 38.6074 5.7561C38.7623 5.88531 38.9002 6.00242 38.999 6.08716C39.0481 6.12929 39.0873 6.16345 39.1143 6.18677C39.1277 6.19845 39.1386 6.20717 39.1455 6.21313L39.1543 6.22192H39.1553L39.8604 6.83813L40.5215 6.17407L43.7402 2.94067L44.6807 9.96118L45.7158 17.7014L30.9561 15.7405L34.7061 12.0051L35.2354 11.4778L34.8789 10.8206C34.0838 9.354 30.9558 5.96766 24.6973 4.42407C26.3638 3.35265 28.2946 2.73406 30.2969 2.65063Z" stroke="#0090CC" stroke-width="2"/>
</svg>
