<svg width="52" height="51" viewBox="0 0 52 51" fill="none" xmlns="http://www.w3.org/2000/svg">
<path d="M28.9272 1.41699C29.8 2.33757 30.5783 3.28276 31.1763 4.2959L31.3228 4.55176C31.8547 5.51271 32.1687 6.50723 32.1519 7.46387L32.144 7.6543L32.1431 7.65918C32.0816 8.69403 31.6082 9.74107 30.8813 10.7256C29.4846 12.598 27.6503 14.129 25.7856 15.9131L25.4712 16.2139L25.4771 16.6484C25.5033 18.6928 25.9763 20.6784 26.436 22.5322L27.228 25.7266L27.2192 25.7295L27.4097 26.6914C27.968 29.5111 28.1813 32.3833 28.1118 35.2568C27.5827 35.2133 27.0622 35.1543 26.5532 35.0693C26.5986 33.3004 26.5607 31.5269 26.4214 29.7559L26.3618 29L25.6187 28.8525L23.9673 28.542C22.3147 28.2452 20.6582 27.9862 19.0151 27.7295H19.0161C17.3669 27.469 15.7681 27.2163 14.228 26.8193L13.5718 26.6396L13.564 26.6377L13.2046 26.5312C11.5413 26.0169 10.0647 25.2161 9.13232 24.0889L8.94092 23.8418L8.93701 23.8369L8.70068 23.4941C7.78847 22.0783 7.46143 20.4051 7.35596 18.6338C8.68879 18.8821 10.0244 19.0956 11.3462 19.3037C13.084 19.5773 14.7963 19.8438 16.4897 20.1807V20.1816C18.657 20.6303 20.6943 21.2489 22.1294 22.4531L22.4077 22.7021L22.4136 22.707C22.9563 23.2149 23.3848 23.8272 23.7231 24.4961L25.5991 23.8643C25.1327 21.3175 24.6533 18.9111 24.7388 16.4893L24.7524 16.0977L24.4976 15.8018C23.1358 14.2191 22.0798 12.5816 21.9448 10.8818L21.9302 10.541V10.5381L21.938 10.2559C22.0291 8.84548 22.8835 7.4587 24.064 6.14355C24.9062 5.21437 25.8263 4.33308 26.7808 3.43945C27.4858 2.77943 28.2139 2.10669 28.9272 1.41699ZM44.6382 14.9736C44.5187 16.4914 44.173 17.942 43.4116 19.2051L43.2085 19.5234L43.2056 19.5273C42.6453 20.363 41.8593 21.1015 40.9282 21.7051L40.521 21.9551L40.52 21.9561C39.3666 22.6279 38.0661 23.1188 36.6929 23.5312L36.1001 23.7031C33.5098 24.4128 30.8699 24.932 28.1772 25.5205L27.2476 25.7227L28.3491 22.627C28.8027 21.3506 29.6162 20.1673 30.7554 19.2861L30.9878 19.1143L30.9937 19.1094C32.6662 17.9016 34.7879 17.2219 37.0337 16.6436L37.0327 16.6426C38.4833 16.283 39.9524 15.9726 41.4399 15.6602C42.4994 15.4376 43.5696 15.214 44.6382 14.9736Z" stroke="#0090CC" stroke-width="2"/>
<path d="M14.5034 35.2062C16.213 34.8829 18.0221 34.5615 19.743 35.0129C20.8736 35.301 21.8756 35.8744 22.7807 36.5229C23.3164 36.8979 23.8041 37.3424 24.4291 37.608C25.0318 37.859 25.7002 37.943 26.3541 38.0319C27.4199 38.1647 28.4924 38.2937 29.5716 38.275C30.5302 38.2604 31.5469 38.3932 32.3393 38.8992C32.8628 39.2264 33.2377 39.7645 33.2221 40.3389C33.2198 40.9122 32.8527 41.4377 32.3716 41.8079C31.711 42.307 30.8638 42.5775 30.0147 42.7084C28.652 42.9115 27.2626 42.9057 25.8877 42.8295C24.5921 42.7534 23.2695 42.6069 22.0832 42.1155C20.7909 41.5744 19.5855 40.8839 18.2676 40.3887C17.9048 40.2422 17.4417 40.3925 17.2766 40.709C17.0901 41.0119 17.2465 41.4015 17.5668 41.5812C19.2487 42.5862 20.9728 43.6412 22.9894 44.0465C24.5228 44.363 26.1064 44.4334 27.6766 44.4402C29.4299 44.4235 31.2691 44.2712 32.7946 43.4459C33.9509 42.8609 34.8927 41.8372 34.9965 40.6407C35.1226 39.6434 34.6473 38.6414 33.8324 37.9497C36.9227 36.9309 40.004 35.8907 43.0987 34.8807C43.7057 34.6727 44.4256 34.655 44.9991 34.953C45.9846 35.4424 46.4032 36.6009 45.9835 37.5112C45.7814 37.982 45.3518 38.3385 44.882 38.611C45.8719 38.2644 46.864 37.9205 47.8584 37.5815C48.5201 37.351 49.3036 37.4467 49.8794 37.81C50.6874 38.3062 51.193 39.236 50.9296 40.0947C50.7712 40.629 50.2902 41.0372 49.7467 41.2912C46.2167 43.0835 42.6511 44.8242 39.0163 46.4494C36.8568 47.3919 34.6427 48.2447 32.3615 48.9372C30.7635 49.406 29.1351 49.8485 27.4533 49.9999C25.3294 49.8485 23.2492 49.4002 21.1958 48.9185C18.6357 48.3179 16.1157 47.595 13.588 46.9005C12.501 46.629 11.3782 46.9474 10.3337 47.217C8.90078 47.5872 7.47009 47.9624 6.03597 48.3305C5.22246 48.5444 4.2648 48.4244 3.63429 47.9027C3.27495 47.6214 3.07748 47.2209 2.97808 46.8155C2.33862 44.4655 1.67688 42.1184 1.04523 39.7664C0.797481 38.7827 1.59766 37.7435 2.70919 37.5277C6.63868 36.7472 10.5725 35.9805 14.5032 35.206L14.5034 35.2062Z" stroke="#0090CC" stroke-width="2"/>
</svg>
