<svg width="34" height="50" viewBox="0 0 34 50" fill="none" xmlns="http://www.w3.org/2000/svg">
<path d="M17.411 35.8826C17.2053 35.8826 17.0006 35.8169 16.8297 35.6868C13.4658 33.1341 11.5361 29.2382 11.5361 24.9982C11.5361 17.5753 17.5748 11.5366 24.9976 11.5366C32.4205 11.5366 38.4592 17.5753 38.4592 24.9982C38.4592 29.2382 36.5295 33.1346 33.1651 35.6873C32.8515 35.9258 32.4242 35.9479 32.088 35.745C31.7509 35.5417 31.5716 35.1544 31.635 34.7661C31.697 34.3863 31.7284 34.0116 31.7284 33.652C31.7284 29.9406 28.709 26.9212 24.9976 26.9212C21.2862 26.9212 18.2669 29.9406 18.2669 33.652C18.2669 34.0107 18.2983 34.3858 18.3603 34.7671C18.4232 35.1553 18.2434 35.5427 17.9063 35.745C17.7532 35.8371 17.5819 35.8826 17.411 35.8826ZM24.9976 13.4597C18.6354 13.4597 13.4592 18.6359 13.4592 24.9982C13.4592 27.8955 14.5099 30.6049 16.3968 32.6923C16.8753 28.3701 20.5501 24.9982 24.9976 24.9982C29.4448 24.9982 33.1195 28.3706 33.5984 32.6923C35.4854 30.6049 36.5361 27.8955 36.5361 24.9982C36.5361 18.6359 31.3599 13.4597 24.9976 13.4597Z" fill="#0090CC"/>
<path d="M24.9975 25.9595C20.7475 25.9595 17.3051 29.4018 17.3051 33.6518C17.3051 34.0845 17.3436 34.5076 17.4109 34.921C19.5167 36.5364 22.1417 37.4979 24.9975 37.4979C27.8533 37.4979 30.4782 36.5364 32.584 34.921C32.6513 34.5076 32.6898 34.0845 32.6898 33.6518C32.6898 29.4018 29.2474 25.9595 24.9975 25.9595Z" fill="#D0E8F9"/>
<path d="M24.9976 38.4596C22.0182 38.4596 19.1927 37.4999 16.8255 35.6839C16.6311 35.5346 16.5011 35.3167 16.4616 35.075C16.3837 34.5923 16.3438 34.1134 16.3438 33.6519C16.3438 28.8804 20.2261 24.998 24.9976 24.998C29.7692 24.998 33.6515 28.8804 33.6515 33.6519C33.6515 34.1148 33.6116 34.5942 33.5327 35.0759C33.4932 35.3177 33.3632 35.5351 33.1693 35.6839C30.8021 37.4999 27.9766 38.4596 24.9976 38.4596ZM18.3086 34.3895C20.2707 35.7956 22.575 36.5365 24.9976 36.5365C27.4198 36.5365 29.7241 35.7956 31.6866 34.3895C31.7143 34.1388 31.7284 33.8918 31.7284 33.6519C31.7284 29.9405 28.709 26.9211 24.9976 26.9211C21.2862 26.9211 18.2669 29.9405 18.2669 33.6519C18.2669 33.8913 18.2809 34.1388 18.3086 34.3895Z" fill="#0090CC"/>
<path d="M25.0005 25.9611C27.1247 25.9611 28.8467 24.2391 28.8467 22.115C28.8467 19.9908 27.1247 18.2688 25.0005 18.2688C22.8763 18.2688 21.1544 19.9908 21.1544 22.115C21.1544 24.2391 22.8763 25.9611 25.0005 25.9611Z" fill="#D0E8F9"/>
<path d="M25.0005 26.9225C22.3497 26.9225 20.1928 24.7656 20.1928 22.1148C20.1928 19.464 22.3497 17.3071 25.0005 17.3071C27.6513 17.3071 29.8082 19.464 29.8082 22.1148C29.8082 24.7656 27.6513 26.9225 25.0005 26.9225ZM25.0005 19.2302C23.4098 19.2302 22.1159 20.5242 22.1159 22.1148C22.1159 23.7055 23.4098 24.9994 25.0005 24.9994C26.5911 24.9994 27.8851 23.7055 27.8851 22.1148C27.8851 20.5242 26.5911 19.2302 25.0005 19.2302Z" fill="#0090CC"/>
<path d="M6.73083 10.5771C8.855 10.5771 10.577 8.85509 10.577 6.73092C10.577 4.60675 8.855 2.88477 6.73083 2.88477C4.60666 2.88477 2.88467 4.60675 2.88467 6.73092C2.88467 8.85509 4.60666 10.5771 6.73083 10.5771Z" fill="#D0E8F9"/>
<path d="M6.73076 11.5385C4.07995 11.5385 1.92307 9.38159 1.92307 6.73079C1.92307 4.07998 4.07995 1.9231 6.73076 1.9231C9.38156 1.9231 11.5385 4.07998 11.5385 6.73079C11.5385 9.38159 9.38156 11.5385 6.73076 11.5385ZM6.73076 3.84617C5.14009 3.84617 3.84614 5.14012 3.84614 6.73079C3.84614 8.32146 5.14009 9.6154 6.73076 9.6154C8.32143 9.6154 9.61537 8.32146 9.61537 6.73079C9.61537 5.14012 8.32143 3.84617 6.73076 3.84617Z" fill="#0090CC"/>
<path d="M6.73083 47.1156C8.855 47.1156 10.577 45.3937 10.577 43.2695C10.577 41.1453 8.855 39.4233 6.73083 39.4233C4.60666 39.4233 2.88467 41.1453 2.88467 43.2695C2.88467 45.3937 4.60666 47.1156 6.73083 47.1156Z" fill="#D0E8F9"/>
<path d="M6.73076 48.0771C4.07995 48.0771 1.92307 45.9202 1.92307 43.2694C1.92307 40.6186 4.07995 38.4617 6.73076 38.4617C9.38156 38.4617 11.5385 40.6186 11.5385 43.2694C11.5385 45.9202 9.38156 48.0771 6.73076 48.0771ZM6.73076 40.3847C5.14009 40.3847 3.84614 41.6787 3.84614 43.2694C3.84614 44.86 5.14009 46.154 6.73076 46.154C8.32143 46.154 9.61537 44.86 9.61537 43.2694C9.61537 41.6787 8.32143 40.3847 6.73076 40.3847Z" fill="#0090CC"/>
<path d="M33.8388 17.1231C33.5928 17.1231 33.3468 17.0292 33.159 16.8414C32.7834 16.4658 32.7834 15.8574 33.159 15.4818L39.7048 8.93551C40.0804 8.55991 40.6888 8.55991 41.0645 8.93551C41.4401 9.31111 41.4401 9.91958 41.0645 10.2952L34.5187 16.8414C34.3309 17.0292 34.0848 17.1231 33.8388 17.1231Z" fill="#0090CC"/>
<path d="M16.1588 17.1203C15.9128 17.1203 15.6668 17.0264 15.479 16.8386L8.93554 10.2952C8.55994 9.91958 8.55994 9.31111 8.93554 8.93551C9.31114 8.55991 9.91961 8.55991 10.2952 8.93551L16.8387 15.4789C17.2143 15.8545 17.2143 16.463 16.8387 16.8386C16.6509 17.0264 16.4048 17.1203 16.1588 17.1203Z" fill="#0090CC"/>
<path d="M40.3846 41.3462C40.1297 41.3462 39.8757 41.2458 39.6864 41.0458L33.3111 34.315C32.9458 33.9295 32.9623 33.321 33.3482 32.9558C33.7341 32.5914 34.3421 32.6069 34.7074 32.9929L41.0827 39.7236C41.448 40.1091 41.4316 40.7176 41.0457 41.0828C40.8597 41.2589 40.6222 41.3462 40.3846 41.3462Z" fill="#0090CC"/>
<path d="M9.61538 41.3462C9.36936 41.3462 9.12334 41.2523 8.93554 41.0645C8.55994 40.6889 8.55994 40.0804 8.93554 39.7048L15.479 33.1618C15.8546 32.7862 16.4631 32.7862 16.8387 33.1618C17.2143 33.5374 17.2143 34.1459 16.8387 34.5215L10.2952 41.0645C10.1074 41.2523 9.8614 41.3462 9.61538 41.3462Z" fill="#0090CC"/>
</svg>
