<svg width="78" height="18" viewBox="0 0 78 18" fill="none" xmlns="http://www.w3.org/2000/svg">
<g clip-path="url(#clip0_56_90)">
<mask id="mask0_56_90" style="mask-type:luminance" maskUnits="userSpaceOnUse" x="0" y="0" width="78" height="18">
<path d="M78 0H0V18H78V0Z" fill="white"/>
</mask>
<g mask="url(#mask0_56_90)">
<path d="M0 14.0818H2.68864C2.68864 15.0934 3.65093 15.8013 5.03278 15.8013C6.04511 15.8013 6.68599 15.2452 6.68599 14.411C6.68599 13.7544 6.41463 13.3501 5.18097 13.0208L2.88687 12.3878C1.2837 11.9323 0.36952 10.7452 0.36952 9.0769C0.36952 7.07931 2.22097 5.61416 4.78643 5.61416C7.60015 5.61416 9.32648 7.00438 9.32648 9.28001H6.68599C6.68599 8.29404 5.94503 7.71228 4.68828 7.71228C3.72599 7.71228 3.03506 8.21714 3.03506 8.92505C3.03506 9.55807 3.40458 9.98597 4.46695 10.2897L6.76105 10.9719C8.38922 11.4531 9.42662 12.6659 9.42662 14.3341C9.42662 16.6354 7.6752 18 4.88651 18C2.09779 18 0 16.3318 0 14.0818ZM10.5351 11.8061C10.5351 8.14025 12.681 5.61218 16.2589 5.61218C19.4671 5.61218 21.4648 7.40664 21.7112 10.1122H19.0226C18.7262 8.7732 17.887 8.0653 16.2589 8.0653C14.3593 8.0653 13.2238 9.40428 13.2238 11.8061C13.2238 14.2079 14.3593 15.5469 16.2589 15.5469C17.887 15.5469 18.7262 14.8646 19.0226 13.6262H21.7112C21.4648 16.2548 19.4652 18 16.2589 18C12.681 18 10.5351 15.4719 10.5351 11.8061ZM22.7004 11.8061C22.7004 8.34336 24.8463 5.61218 28.4241 5.61218C29.9542 5.61218 31.336 6.32012 32.052 7.50917V5.91587H34.7175V17.6963H32.052V16.103C31.336 17.2921 29.7578 18 28.351 18C24.65 18 22.7004 15.2688 22.7004 11.8061ZM32.1501 11.8061C32.1501 9.78286 31.0396 8.0653 28.7455 8.0653C26.6478 8.0653 25.3891 9.65866 25.3891 11.8061C25.3891 13.9535 26.6478 15.5469 28.7455 15.5469C31.0396 15.5469 32.1501 13.8273 32.1501 11.8061ZM45.9166 0H48.5822V17.6963H45.9166V16.103C45.2007 17.2921 43.6225 18 42.2156 18C38.5147 18 36.5651 15.2688 36.5651 11.8061C36.5651 8.34336 38.711 5.61218 42.2888 5.61218C43.8189 5.61218 45.2007 6.32012 45.9166 7.50917V0ZM46.0167 11.8061C46.0167 9.78286 44.9062 8.0653 42.6121 8.0653C40.5143 8.0653 39.2556 9.65866 39.2556 11.8061C39.2556 13.9535 40.5143 15.5469 42.6121 15.5469C44.9062 15.5469 46.0167 13.8273 46.0167 11.8061ZM50.4336 11.8061C50.4336 8.34336 52.5795 5.61218 56.1573 5.61218C57.6874 5.61218 59.0692 6.32012 59.7852 7.50917V5.91587H62.4507V17.6963H59.7852V16.103C59.0692 17.2921 57.4911 18 56.0842 18C52.3833 18 50.4336 15.2688 50.4336 11.8061ZM59.8833 11.8061C59.8833 9.78286 58.7729 8.0653 56.4787 8.0653C54.381 8.0653 53.1223 9.65866 53.1223 11.8061C53.1223 13.9535 54.381 15.5469 56.4787 15.5469C58.7729 15.5469 59.8833 13.8273 59.8833 11.8061Z" fill="#41B0FF"/>
<path d="M77.813 10.2803H73.8252C73.2033 10.2803 72.6988 9.76357 72.6988 9.12615V5.03638H70.434V9.29103C70.434 9.83794 70.0025 10.2803 69.4687 10.2803H65.3202V12.6007H69.3078C69.9299 12.6007 70.434 13.1175 70.434 13.7548V17.73H72.6988V13.9197C72.6988 13.1939 73.2778 12.6007 73.9861 12.6007H77.813V10.2803Z" fill="#41B0FF"/>
</g>
</g>
<defs>
<clipPath id="clip0_56_90">
<rect width="78" height="18" fill="white"/>
</clipPath>
</defs>
</svg>
