<svg width="111" height="26" viewBox="0 0 111 26" fill="none" xmlns="http://www.w3.org/2000/svg">
<mask id="mask0_1_629" style="mask-type:luminance" maskUnits="userSpaceOnUse" x="0" y="0" width="111" height="26">
<path d="M111 0.5H0V25.5H111V0.5Z" fill="white"/>
</mask>
<g mask="url(#mask0_1_629)">
<path d="M0 20.058H3.82614C3.82614 21.463 5.19555 22.4462 7.16203 22.4462C8.60265 22.4462 9.51468 21.6739 9.51468 20.5153C9.51468 19.6033 9.12851 19.0418 7.37292 18.5845L4.10824 17.7053C1.8268 17.0726 0.525855 15.4239 0.525855 13.1068C0.525855 10.3324 3.16061 8.29744 6.81146 8.29744C10.8156 8.29744 13.2723 10.2283 13.2723 13.3889H9.51468C9.51468 12.0195 8.46023 11.2115 6.67178 11.2115C5.30237 11.2115 4.31913 11.9127 4.31913 12.8959C4.31913 13.7751 4.84498 14.3694 6.35681 14.7912L9.6215 15.7388C11.9385 16.4071 13.4148 18.0915 13.4148 20.4085C13.4148 23.6047 10.9224 25.5 6.95388 25.5C2.98532 25.5 0 23.183 0 20.058ZM14.9923 16.8973C14.9923 11.8059 18.0461 8.2947 23.1376 8.2947C27.7032 8.2947 30.5461 10.787 30.8967 14.5447H27.0706C26.6488 12.685 25.4546 11.7018 23.1376 11.7018C20.4344 11.7018 18.8185 13.5615 18.8185 16.8973C18.8185 20.2332 20.4344 22.0929 23.1376 22.0929C25.4546 22.0929 26.6488 21.1453 27.0706 19.4253H30.8967C30.5461 23.0761 27.7005 25.5 23.1376 25.5C18.0461 25.5 14.9923 21.9888 14.9923 16.8973ZM32.3044 16.8973C32.3044 12.088 35.3582 8.2947 40.4497 8.2947C42.6271 8.2947 44.5936 9.27794 45.6124 10.9294V8.71648H49.4057V25.0782H45.6124V22.8653C44.5936 24.5168 42.3477 25.5 40.3456 25.5C35.0789 25.5 32.3044 21.7067 32.3044 16.8973ZM45.7521 16.8973C45.7521 14.0873 44.1718 11.7018 40.9071 11.7018C37.9218 11.7018 36.1306 13.9148 36.1306 16.8973C36.1306 19.8799 37.9218 22.0929 40.9071 22.0929C44.1718 22.0929 45.7521 19.7046 45.7521 16.8973ZM65.3429 0.5H69.1362V25.0782H65.3429V22.8653C64.3241 24.5168 62.0782 25.5 60.0761 25.5C54.8094 25.5 52.035 21.7067 52.035 16.8973C52.035 12.088 55.0887 8.2947 60.1802 8.2947C62.3576 8.2947 64.3241 9.27794 65.3429 10.9294V0.5ZM65.4853 16.8973C65.4853 14.0873 63.905 11.7018 60.6403 11.7018C57.655 11.7018 55.8638 13.9148 55.8638 16.8973C55.8638 19.8799 57.655 22.0929 60.6403 22.0929C63.905 22.0929 65.4853 19.7046 65.4853 16.8973ZM71.7709 16.8973C71.7709 12.088 74.8247 8.2947 79.9162 8.2947C82.0936 8.2947 84.06 9.27794 85.0789 10.9294V8.71648H88.8722V25.0782H85.0789V22.8653C84.06 24.5168 81.8142 25.5 79.8121 25.5C74.5454 25.5 71.7709 21.7067 71.7709 16.8973ZM85.2186 16.8973C85.2186 14.0873 83.6383 11.7018 80.3736 11.7018C77.3883 11.7018 75.5971 13.9148 75.5971 16.8973C75.5971 19.8799 77.3883 22.0929 80.3736 22.0929C83.6383 22.0929 85.2186 19.7046 85.2186 16.8973Z" fill="white"/>
<path d="M110.734 14.7782H105.059C104.174 14.7782 103.456 14.0605 103.456 13.1752V7.49496H100.233V13.4042C100.233 14.1638 99.619 14.7782 98.8594 14.7782H92.9557V18.0009H98.6304C99.5157 18.0009 100.233 18.7187 100.233 19.6039V25.125H103.456V19.8329C103.456 18.8248 104.28 18.0009 105.288 18.0009H110.734V14.7782Z" fill="white"/>
</g>
</svg>
