<svg width="51" height="51" viewBox="0 0 51 51" fill="none" xmlns="http://www.w3.org/2000/svg">
<path d="M26.7344 7C24.425 10.6 23.9219 15.6993 23.9919 20.2C24.0005 20.7475 24.1713 21.5155 24.359 22.2018C24.7318 22.0248 25.1449 21.925 25.5797 21.925C25.7991 21.925 26.0127 21.951 26.2189 21.9987L26.7344 7ZM25.5797 23.275C24.6552 23.275 23.9198 24.0393 23.9198 25C23.9198 25.9608 24.6552 26.725 25.5797 26.725C26.5042 26.725 27.2396 25.9608 27.2396 25C27.2396 24.0393 26.5042 23.275 25.5797 23.275ZM28.5242 25.3025C28.4594 25.9815 28.1795 26.5976 27.7569 27.0757L40 35.0403C38.1546 31.1617 34.1569 28.1595 30.3711 25.972C29.9117 25.7065 29.1886 25.4766 28.5242 25.3025ZM22.7581 25.923L10 32.959C14.1548 33.2376 18.6558 31.1408 22.3715 28.8273C22.8243 28.5454 23.3783 28.0071 23.8568 27.4945C23.3444 27.1104 22.9531 26.561 22.7581 25.923ZM26.7895 27.8033C26.4195 27.9773 26.0101 28.075 25.5797 28.075C25.1492 28.075 24.7398 27.9774 24.3698 27.8035L23.8476 43H27.3117L26.7895 27.8033Z" fill="#FDFEFF"/>
<circle cx="25.4484" cy="25.4484" r="24.9484" stroke="white"/>
</svg>
