<svg width="163" height="45" viewBox="0 0 163 45" fill="none" xmlns="http://www.w3.org/2000/svg">
<g clip-path="url(#clip0_90_76)">
<path d="M70.0086 38.1171L62.2065 25.0684H58.2142V41.181H61.056V28.2162L68.764 41.0917L68.8165 41.181H72.8288V25.0684H70.0086V38.1171Z" fill="white"/>
<path d="M83.3226 24.9644C78.7513 24.9644 75.4319 28.3965 75.4319 33.1246C75.4319 37.8527 78.7495 41.4963 83.3226 41.4963C87.8956 41.4963 91.2133 37.9748 91.2133 33.1246C91.2133 28.2744 87.8956 24.9644 83.3226 24.9644ZM83.3226 38.6747C80.3052 38.6747 78.357 36.4966 78.357 33.1246C78.357 29.7526 80.307 27.7859 83.3226 27.7859C86.3381 27.7859 88.2882 29.882 88.2882 33.1246C88.2882 36.3672 86.3381 38.6747 83.3226 38.6747Z" fill="white"/>
<path d="M105.242 30.2685C105.242 26.8546 102.729 25.0684 100.247 25.0684H93.8145V41.1792H96.6564V35.3429H99.529L103.634 41.1792H106.893L102.311 34.7888C103.762 34.0452 105.24 32.5013 105.24 30.2685H105.242ZM96.6564 27.7641H99.6629C101.497 27.7641 102.317 28.537 102.317 30.2685C102.317 31.7577 101.372 32.6472 99.7895 32.6472H96.6564V27.7623V27.7641Z" fill="white"/>
<path d="M128.069 25.0684L124.245 37.8874L120.459 25.1996L120.421 25.0684H117.192L113.407 37.9312L109.502 25.0684H106.389L111.528 41.181H115.086L118.724 29.0491L122.402 41.181H126.065L131.161 25.0684H128.069Z" fill="white"/>
<path d="M136.142 25.0684L130.216 41.1792H133.206L134.54 37.4846H141.121L142.454 41.1792H145.466L139.54 25.0684H136.141H136.142ZM140.182 34.7906H135.482L137.832 28.0102L140.182 34.7906Z" fill="white"/>
<path d="M155.037 25.0684L150.896 33.1867L146.777 25.0684H143.695L149.485 35.8788V41.181H152.327V35.9426L158.116 25.0684H155.037Z" fill="white"/>
<path d="M77.4724 19.181V3.05371H73.1218L67.8849 16.4451L62.543 3.05371H58.2142V19.181H60.9131V6.1122L66.1356 19.181H69.4894L74.6287 6.36009V19.181H77.4724Z" fill="white"/>
<path d="M88.7169 3.05371H85.316L79.3845 19.181H82.3783L83.7133 15.4827H90.3015L91.6366 19.181H94.6521L88.7205 3.05371H88.7169ZM89.3573 12.7833H84.654L87.0056 5.99555L89.3573 12.7833Z" fill="white"/>
<path d="M109.704 11.1173C109.704 6.44576 106.725 3.05371 102.62 3.05371H96.4954V19.181H102.496C106.673 19.181 109.706 15.7889 109.706 11.1173H109.704ZM102.098 5.75131C105.245 5.75131 106.776 7.50657 106.776 11.1173C106.776 14.4274 105.032 16.4834 102.223 16.4834H99.3372V5.75131H102.098Z" fill="white"/>
<path d="M122.874 16.4834H115.115V12.4971H121.893V9.77948H115.115V5.75131H122.749V3.05371H112.27V19.181H122.874V16.4834Z" fill="white"/>
<path d="M135.281 3.05371H132.438V19.181H135.281V3.05371Z" fill="white"/>
<path d="M141.634 6.20334L149.35 19.0917L149.402 19.181H153.42V3.05371H150.596V16.1152L142.787 3.05371H138.791V19.181H141.634V6.20334Z" fill="white"/>
<path d="M49.4823 3.05176H32.0186V41.179H49.4823V3.05176Z" fill="white"/>
<path d="M29.108 3.05176H23.2867V41.179H29.108V3.05176Z" fill="white"/>
<path d="M20.3743 3.05176H2.91064V20.6481H20.3743V3.05176Z" fill="white"/>
<path d="M11.6443 23.5845H11.6407C6.81922 23.5845 2.91064 27.5227 2.91064 32.3808V32.3826C2.91064 37.2407 6.81922 41.179 11.6407 41.179H11.6443C16.4658 41.179 20.3743 37.2407 20.3743 32.3826V32.3808C20.3743 27.5227 16.4658 23.5845 11.6443 23.5845Z" fill="white"/>
</g>
<defs>
<clipPath id="clip0_90_76">
<rect width="163" height="44" fill="white" transform="translate(0 0.119141)"/>
</clipPath>
</defs>
</svg>
