<svg width="145" height="66" viewBox="0 0 145 66" fill="none" xmlns="http://www.w3.org/2000/svg">
<path d="M38.1032 39.262C38.1032 44.7526 34.189 47.3338 29.0228 47.3338H18.1461C12.9799 47.3338 9.06561 44.591 9.06561 39.1004V24.0832C9.06561 18.5926 12.9799 16.1191 18.1461 16.1191H29.0228C34.189 16.1191 38.1032 18.431 38.1032 23.9216V39.262ZM15.8648 37.1069C15.8648 40.0653 17.5522 41.0889 20.3234 41.0889H26.029C28.9634 41.0889 31.3585 40.7118 31.3585 37.1069V26.4C31.3585 22.7412 28.9634 22.4179 26.029 22.4179H20.3234C17.5522 22.4179 15.8648 23.4416 15.8648 26.4V37.1069Z" fill="#0090CC"/>
<path d="M50.608 47.3338H43.8137V24.2449C43.8137 18.7542 47.728 16.1191 52.8942 16.1191H58.0604V22.4179H55.0665C52.241 22.4179 50.608 23.4416 50.608 26.4V47.3338Z" fill="#0090CC"/>
<path d="M69.1104 47.3338H62.3112V16.1191H69.1104V47.3338Z" fill="#0090CC"/>
<path d="M94.0556 16.1191C99.2218 16.1191 103.136 18.5387 103.136 24.0293V51.3159C103.136 56.8065 99.2218 59.1722 94.0556 59.1722H74.5883V52.9273H92.2048C94.6494 52.9273 96.3368 51.9036 96.3368 48.8914V47.3338H83.1788C78.0126 47.3338 74.0984 44.7477 74.0984 39.262V24.2449C74.0984 18.7542 78.0126 16.1191 83.1788 16.1191H94.0556ZM84.8663 22.364C82.7978 22.364 80.8976 23.4416 80.8976 26.3461V37.9738C80.8976 41.04 84.0498 41.0938 86.3904 41.0938H96.3417V26.3461C96.3417 23.4416 94.7087 22.364 92.2098 22.364H84.8663Z" fill="#0090CC"/>
<path d="M137.612 39.262C137.612 44.7526 133.698 47.3338 128.532 47.3338H117.655C112.489 47.3338 108.574 44.591 108.574 39.1004V24.0832C108.574 18.5926 112.489 16.1191 117.655 16.1191H128.532C133.698 16.1191 137.612 18.431 137.612 23.9216V39.262ZM115.374 37.1069C115.374 40.0653 117.061 41.0889 119.832 41.0889H125.543C128.477 41.0889 130.872 40.7118 130.872 37.1069V26.4C130.872 22.7412 128.482 22.4179 125.543 22.4179H119.832C117.061 22.4179 115.374 23.4416 115.374 26.4V37.1069Z" fill="#0090CC"/>
<path d="M12.3019 55.239C13.0441 55.239 13.5736 55.6553 13.5736 56.4194V57.6439C13.5736 58.4129 13.0491 58.7802 12.3019 58.7802H9.42187V57.7761H11.9654C12.3217 57.7761 12.5147 57.6096 12.5147 57.1835V56.8308C12.5147 56.4145 12.3217 56.2382 11.9654 56.2382H10.6342C9.89197 56.2382 9.36249 55.8317 9.36249 55.0578V53.9312C9.36249 53.1623 9.88703 52.7949 10.6342 52.7949H13.5192V53.799H10.9757C10.6194 53.799 10.4264 53.9753 10.4264 54.3917V54.6464C10.4264 55.0627 10.6194 55.239 10.9757 55.239H12.3019Z" fill="#E3E3E3"/>
<path d="M21.1052 57.6488C21.1052 58.4177 20.5856 58.7851 19.8335 58.7851H17.8095C17.0673 58.7851 16.5378 58.3737 16.5378 57.6047V53.9851C16.5378 53.2161 17.0623 52.8047 17.8095 52.8047H19.8335C20.5856 52.8047 21.1052 53.221 21.1052 53.9851V57.6488ZM17.6017 57.1884C17.6017 57.6096 17.7947 57.781 18.2005 57.781H19.497C19.8533 57.781 20.0561 57.6145 20.0561 57.1884V54.3916C20.0561 53.9851 19.8533 53.8088 19.497 53.8088H18.2005C17.7996 53.8088 17.6017 53.9851 17.6017 54.3916V57.1884Z" fill="#E3E3E3"/>
<path d="M24.0743 57.6488V52.8047H25.1382V57.1884C25.1382 57.6096 25.3312 57.781 25.6875 57.781H28.1667V58.7851H25.346C24.5988 58.7851 24.0743 58.4129 24.0743 57.6488Z" fill="#E3E3E3"/>
<path d="M32.1947 57.2422C32.1947 57.5949 32.3828 57.781 32.7984 57.781H34.0553C34.476 57.781 34.6591 57.5949 34.6591 57.2422V52.8047H35.723V57.5361C35.723 58.2806 35.337 58.7851 34.5601 58.7851H32.3382C31.5613 58.7851 31.1357 58.2806 31.1357 57.5361V52.8047H32.1997V57.2422H32.1947Z" fill="#E3E3E3"/>
<path d="M41.2801 53.8039V58.7802H40.2261V53.8039H38.6822V52.7998H42.7894V53.8039H41.2801Z" fill="#E3E3E3"/>
<path d="M46.8224 58.7851H45.7634V52.7998H46.8224V58.7851Z" fill="#E3E3E3"/>
<path d="M54.354 57.6488C54.354 58.4177 53.8344 58.7851 53.0822 58.7851H51.0583C50.316 58.7851 49.7866 58.3737 49.7866 57.6047V53.9851C49.7866 53.2161 50.316 52.8047 51.0583 52.8047H53.0822C53.8344 52.8047 54.354 53.221 54.354 53.9851V57.6488ZM50.8505 57.1884C50.8505 57.6096 51.0435 57.781 51.4492 57.781H52.7408C53.0971 57.781 53.3 57.6145 53.3 57.1884V54.3916C53.3 53.9851 53.0971 53.8088 52.7408 53.8088H51.4492C51.0484 53.8088 50.8505 53.9851 50.8505 54.3916V57.1884Z" fill="#E3E3E3"/>
<path d="M61.9004 52.8001V58.1193C61.9004 58.6238 61.6975 58.8785 61.2818 58.8785C61.0641 58.8785 60.8018 58.8099 60.3812 58.1487L58.382 55.0042V58.7756H57.3181V53.3928C57.3181 52.947 57.5507 52.7021 57.8822 52.7021C58.0901 52.7021 58.3078 52.7952 58.5255 53.1381L60.8315 56.836V52.7952H61.9004V52.8001Z" fill="#E3E3E3"/>
<path d="M67.8138 55.239C68.556 55.239 69.0855 55.6553 69.0855 56.4194V57.6439C69.0855 58.4129 68.561 58.7802 67.8138 58.7802H64.9338V57.7761H67.4773C67.8336 57.7761 68.0266 57.6096 68.0266 57.1835V56.8308C68.0266 56.4145 67.8336 56.2382 67.4773 56.2382H66.1461C65.4039 56.2382 64.8744 55.8317 64.8744 55.0578V53.9312C64.8744 53.1623 65.3989 52.7949 66.1461 52.7949H69.0262V53.799H66.4826C66.1264 53.799 65.9334 53.9753 65.9334 54.3917V54.6464C65.9334 55.0627 66.1264 55.239 66.4826 55.239H67.8138Z" fill="#E3E3E3"/>
<path d="M78.2254 8.8992H75.7512L75.187 10.4176H74.7021L76.7656 5.02002H77.206L79.2695 10.4176H78.7895L78.2254 8.8992ZM75.8947 8.51226H78.0819L76.9883 5.57349L75.8947 8.51226Z" fill="#E3E3E3"/>
<path d="M86.4992 10.4176H85.3759V8.10573H83.1838V10.4176H82.0605V5.02002H83.1838V7.20451H85.3759V5.02002H86.4992V10.4176Z" fill="#E3E3E3"/>
<path d="M88.8349 10.4176H87.7116V5.02002H88.8349V10.4176Z" fill="#E3E3E3"/>
<path d="M91.5021 5.02002L92.9026 8.93349L94.298 5.02002H95.7727V10.4176H94.6444V8.94329L94.7582 6.39635L93.2885 10.4176H92.5166L91.0469 6.40124L91.1607 8.94329V10.4176H90.0374V5.02002H91.5021Z" fill="#E3E3E3"/>
<path d="M100.063 9.30085H98.0935L97.7174 10.4127H96.5248L98.5537 5.01514H99.5929L101.632 10.4127H100.439L100.063 9.30085ZM98.3953 8.40452H99.7562L99.0733 6.38657L98.3953 8.40452Z" fill="#E3E3E3"/>
<path d="M108.396 8.73291C108.332 9.30108 108.129 9.737 107.778 10.0358C107.431 10.3394 106.966 10.4864 106.387 10.4864C105.981 10.4864 105.625 10.3884 105.313 10.1876C105.002 9.98679 104.764 9.70271 104.591 9.33536C104.423 8.96802 104.333 8.54679 104.333 8.07659V7.37618C104.333 6.89618 104.418 6.47006 104.586 6.10271C104.754 5.73047 105.002 5.44638 105.318 5.24557C105.635 5.04475 106.001 4.94189 106.417 4.94189C107.001 4.94189 107.461 5.09863 107.802 5.4072C108.139 5.71577 108.337 6.15169 108.391 6.70026H107.926C107.812 5.78434 107.308 5.32394 106.417 5.32394C105.922 5.32394 105.531 5.50516 105.234 5.87251C104.937 6.23985 104.794 6.74434 104.794 7.39087V8.0521C104.794 8.67414 104.937 9.17373 105.224 9.54108C105.511 9.91332 105.897 10.0994 106.382 10.0994C106.862 10.0994 107.228 9.98679 107.471 9.75659C107.713 9.52638 107.867 9.18353 107.926 8.72802H108.396V8.73291Z" fill="#E3E3E3"/>
<path d="M109.322 8.35098C109.322 7.96404 109.396 7.61629 109.549 7.30772C109.703 6.99915 109.915 6.75915 110.188 6.58772C110.465 6.41629 110.776 6.32812 111.128 6.32812C111.667 6.32812 112.103 6.51425 112.439 6.89139C112.776 7.26364 112.939 7.76323 112.939 8.38037V8.47343C112.939 8.86037 112.865 9.20813 112.711 9.52159C112.558 9.83017 112.345 10.0702 112.073 10.2367C111.796 10.4032 111.484 10.4865 111.133 10.4865C110.598 10.4865 110.158 10.3004 109.826 9.92323C109.495 9.54608 109.322 9.05139 109.322 8.43425V8.35098ZM109.772 8.47343C109.772 8.95343 109.896 9.34527 110.148 9.65384C110.4 9.96241 110.727 10.1142 111.133 10.1142C111.538 10.1142 111.865 9.96241 112.117 9.65384C112.37 9.34527 112.494 8.93874 112.494 8.43425V8.35098C112.494 8.04731 112.434 7.76323 112.32 7.50853C112.207 7.25384 112.043 7.05792 111.835 6.91588C111.628 6.77384 111.39 6.70527 111.123 6.70527C110.722 6.70527 110.395 6.862 110.143 7.17057C109.891 7.47915 109.767 7.88568 109.767 8.39017V8.47343H109.772Z" fill="#E3E3E3"/>
<path d="M114.438 6.40648L114.453 7.05791C114.602 6.81791 114.79 6.63178 115.012 6.51423C115.235 6.39668 115.487 6.33301 115.76 6.33301C116.398 6.33301 116.804 6.5926 116.977 7.11178C117.12 6.86199 117.313 6.67097 117.556 6.53382C117.798 6.39668 118.066 6.33301 118.357 6.33301C119.228 6.33301 119.669 6.80321 119.689 7.74362V10.4179H119.238V7.77301C119.238 7.41546 119.159 7.15097 119.006 6.97464C118.852 6.80321 118.6 6.71505 118.254 6.71505C117.932 6.71995 117.66 6.8228 117.437 7.02362C117.214 7.22444 117.091 7.46933 117.066 7.75831V10.413H116.616V7.73872C116.616 7.39586 116.531 7.14117 116.368 6.96974C116.205 6.80321 115.957 6.71505 115.626 6.71505C115.344 6.71505 115.101 6.79342 114.898 6.95505C114.696 7.11668 114.547 7.35178 114.448 7.66525V10.4179H113.998V6.40648H114.438Z" fill="#E3E3E3"/>
<path d="M124.246 8.44893C124.246 9.07586 124.108 9.57056 123.826 9.93791C123.543 10.3053 123.172 10.4865 122.702 10.4865C122.148 10.4865 121.722 10.2955 121.43 9.90852V11.9559H120.985V6.40648H121.401L121.421 6.97464C121.713 6.54852 122.138 6.33301 122.692 6.33301C123.177 6.33301 123.558 6.51423 123.83 6.87668C124.108 7.23913 124.246 7.74362 124.246 8.39015V8.44893ZM123.796 8.37546C123.796 7.86607 123.692 7.45954 123.479 7.16566C123.266 6.87178 122.969 6.71995 122.593 6.71995C122.321 6.71995 122.084 6.78362 121.886 6.91586C121.688 7.04811 121.539 7.23913 121.43 7.48893V9.41382C121.539 9.64403 121.693 9.82036 121.891 9.93791C122.089 10.0604 122.326 10.1191 122.598 10.1191C122.974 10.1191 123.271 9.97219 123.479 9.67342C123.692 9.36974 123.796 8.93872 123.796 8.37546Z" fill="#E3E3E3"/>
<path d="M127.957 10.4179C127.913 10.2905 127.883 10.1044 127.873 9.85952C127.715 10.0603 127.517 10.2171 127.275 10.3297C127.032 10.4424 126.775 10.4963 126.503 10.4963C126.112 10.4963 125.8 10.3885 125.557 10.173C125.315 9.95748 125.196 9.6881 125.196 9.35503C125.196 8.9632 125.36 8.65463 125.691 8.42932C126.018 8.20401 126.478 8.08646 127.062 8.08646H127.873V7.63095C127.873 7.34687 127.784 7.11667 127.606 6.95503C127.428 6.7885 127.166 6.71014 126.824 6.71014C126.513 6.71014 126.255 6.7885 126.047 6.94524C125.845 7.10197 125.741 7.29299 125.741 7.5183L125.29 7.5134C125.29 7.19503 125.439 6.92075 125.741 6.68565C126.042 6.45054 126.409 6.33789 126.844 6.33789C127.294 6.33789 127.651 6.45054 127.913 6.67095C128.175 6.89136 128.309 7.20483 128.314 7.60646V9.50687C128.314 9.89381 128.353 10.1828 128.437 10.3787V10.4228H127.957V10.4179ZM126.547 10.0946C126.849 10.0946 127.116 10.0212 127.349 9.87912C127.586 9.73707 127.755 9.54605 127.863 9.30605V8.42442H127.062C126.616 8.42932 126.265 8.51259 126.013 8.66932C125.76 8.82605 125.637 9.04156 125.637 9.31585C125.637 9.54116 125.721 9.72728 125.889 9.87422C126.057 10.0212 126.28 10.0946 126.547 10.0946Z" fill="#E3E3E3"/>
<path d="M130.095 6.40648L130.11 7.09219C130.263 6.84729 130.452 6.65627 130.679 6.52893C130.907 6.40158 131.159 6.33301 131.431 6.33301C131.867 6.33301 132.188 6.45546 132.401 6.69546C132.614 6.93546 132.723 7.3028 132.723 7.7877V10.4179H132.277V7.7828C132.277 7.42525 132.198 7.15586 132.045 6.98444C131.892 6.81301 131.654 6.71995 131.322 6.71995C131.045 6.71995 130.798 6.80321 130.585 6.97954C130.372 7.15097 130.214 7.38117 130.11 7.67505V10.4228H129.665V6.41138H130.095V6.40648Z" fill="#E3E3E3"/>
<path d="M135.326 9.77608L136.508 6.40138H136.993L135.261 11.0936L135.172 11.2993C134.95 11.7842 134.608 12.0291 134.143 12.0291C134.034 12.0291 133.92 12.0095 133.797 11.9753L133.792 11.6079L134.024 11.6324C134.242 11.6324 134.42 11.5785 134.559 11.4708C134.697 11.363 134.811 11.1769 134.905 10.9173L135.103 10.3736L133.574 6.39648H134.064L135.326 9.77608Z" fill="#E3E3E3"/>
</svg>
