<svg width="43" height="44" viewBox="0 0 43 44" fill="none" xmlns="http://www.w3.org/2000/svg">
<path d="M17.7209 32.869C17.7209 33.4718 18.2032 34.0746 18.9265 34.0746H23.7487C24.4721 34.0746 24.9543 33.4718 24.9543 32.869V31.6635H17.7209V32.869ZM21.3376 9.96338C16.6359 9.96338 12.8987 13.7006 12.8987 18.4023C12.8987 21.2957 14.3454 23.8273 16.5154 25.274V28.0468C16.5154 28.6496 16.9976 29.2524 17.7209 29.2524H24.9543C25.6776 29.2524 26.1599 28.6496 26.1599 28.0468V25.274C28.3299 23.7068 29.7765 21.1751 29.7765 18.4023C29.7765 13.7006 26.0393 9.96338 21.3376 9.96338Z" fill="#5CBCC3"/>
<circle cx="21.3375" cy="22.0192" r="20.8375" stroke="#5CBCC3"/>
</svg>
