<svg width="44" height="44" viewBox="0 0 44 44" fill="none" xmlns="http://www.w3.org/2000/svg">
<path d="M21.7419 12.6002C15.4629 12.6002 10.1005 16.5058 7.92798 22.0188C10.1005 27.5318 15.4629 31.4374 21.7419 31.4374C28.021 31.4374 33.3833 27.5318 35.5559 22.0188C33.3833 16.5058 28.021 12.6002 21.7419 12.6002ZM21.7419 28.2979C18.2759 28.2979 15.4629 25.4849 15.4629 22.0188C15.4629 18.5528 18.2759 15.7398 21.7419 15.7398C25.208 15.7398 28.021 18.5528 28.021 22.0188C28.021 25.4849 25.208 28.2979 21.7419 28.2979ZM21.7419 18.2514C19.6573 18.2514 17.9745 19.9342 17.9745 22.0188C17.9745 24.1035 19.6573 25.7863 21.7419 25.7863C23.8266 25.7863 25.5094 24.1035 25.5094 22.0188C25.5094 19.9342 23.8266 18.2514 21.7419 18.2514Z" fill="#0090CC"/>
<circle cx="21.7418" cy="22.0192" r="20.8375" stroke="#0090CC"/>
</svg>
